<svg xmlns="http://www.w3.org/2000/svg" viewBox="0 0 62 47"><path d="M14.8 43.7c-.3 1-1 1.9-2.1 2.5-1 .6-2 .9-2.9.9H3.1c-.9 0-1.5-.3-1.9-.9-.3-.6-.3-1.5.2-2.5l9.5-22.9c-1-.9-2-2.1-2.9-3.6-.9-1.5-1.4-3-1.4-4.6 0-1.8.4-3.5 1.1-5 .7-1.5 1.7-2.8 2.9-3.9s2.5-1.9 4-2.5C16 .6 17.5.3 19 .3c3.1 0 6 1.1 8.6 3.4 2.6 2.2 4 5.2 4 8.9 0 3-.6 5.9-1.7 8.8-1.1 2.9-2.6 5.6-4.2 8.3-1.7 2.6-3.5 5.2-5.4 7.6-2.1 2.3-3.9 4.4-5.5 6.4zm30.8 0c-.3 1-1 1.9-2.1 2.5-1 .6-2 .9-2.9.9h-6.7c-.9 0-1.5-.3-1.9-.9-.3-.6-.3-1.5.2-2.5l9.5-22.9c-1-.9-2-2.1-2.9-3.6-.9-1.5-1.4-3-1.4-4.6 0-1.8.4-3.5 1.1-5 .7-1.5 1.7-2.8 2.9-3.9s2.5-1.9 4-2.5c1.4-.6 2.9-.9 4.4-.9 3.1 0 6 1.1 8.6 3.4 2.6 2.2 4 5.2 4 8.9 0 3-.6 5.9-1.7 8.8-1.1 2.9-2.6 5.6-4.2 8.3-1.7 2.6-3.5 5.2-5.4 7.6-2.1 2.3-3.9 4.4-5.5 6.4z" fill="#e1eaf6"/></svg>